<?xml version="1.0" encoding="iso-8859-1"?>
<!-- Generator: Adobe Illustrator 19.0.0, SVG Export Plug-In . SVG Version: 6.00 Build 0)  -->
<svg version="1.1" id="Capa_1" xmlns="http://www.w3.org/2000/svg" xmlns:xlink="http://www.w3.org/1999/xlink" x="0px" y="0px"
	 viewBox="0 0 512 512" style="enable-background:new 0 0 512 512;" xml:space="preserve">
<path style="fill:#89B140;" d="M81.067,8.533h324.267c9.429,0,17.067,7.637,17.067,17.067v42.667
	c0,9.429-7.637,17.067-17.067,17.067H81.067C71.637,85.333,64,77.696,64,68.267V25.6C64,16.171,71.637,8.533,81.067,8.533z"/>
<path style="fill:#79A73A;" d="M422.4,68.267v-8.533H64v8.533c0,9.429,7.637,17.067,17.067,17.067h324.267
	C414.763,85.333,422.4,77.696,422.4,68.267z"/>
<path style="fill:#D68F29;" d="M157.867,8.533H192v76.8h-34.133V8.533z"/>
<path id="SVGCleanerId_0" d="M200.533,256h-51.2v-85.333h51.2V256z M166.4,238.933h17.067v-51.2H166.4V238.933z"/>
<path d="M174.933,401.067c-14.114,0-25.6-11.486-25.6-25.6v-34.133h51.2v34.133C200.533,389.581,189.047,401.067,174.933,401.067z
	 M166.4,358.4v17.067c0,4.71,3.831,8.533,8.533,8.533c4.702,0,8.533-3.823,8.533-8.533V358.4H166.4z"/>
<path id="SVGCleanerId_1" d="M337.067,256h-51.2v-85.333h51.2V256z M302.933,238.933H320v-51.2h-17.067V238.933z"/>
<path style="fill:#D68F29;" d="M294.4,8.533h34.133v76.8H294.4V8.533z"/>
<path style="fill:#F7BA61;" d="M157.867,85.333h170.667c28.279,0,51.2,22.921,51.2,51.2v332.8c0,18.85-15.283,34.133-34.133,34.133
	H140.8c-18.85,0-34.133-15.283-34.133-34.133v-332.8C106.667,108.254,129.587,85.333,157.867,85.333z"/>
<path style="fill:#FBB540;" d="M106.667,460.8H38.4c-9.429,0-17.067-7.637-17.067-17.067V307.2c0-18.85,15.283-34.133,34.133-34.133
	h51.2V460.8z"/>
<path style="fill:#D68F29;" d="M157.867,102.4h170.667c28.279,0,51.2,22.921,51.2,51.2v8.533c0,37.7-30.566,68.267-68.267,68.267
	H174.933c-37.7,0-68.267-30.566-68.267-68.267V153.6C106.667,125.321,129.587,102.4,157.867,102.4z"/>
<path style="fill:#EA9D2D;" d="M157.867,85.333h170.667c28.279,0,51.2,22.921,51.2,51.2v8.533c0,37.7-30.566,68.267-68.267,68.267
	H174.933c-37.7,0-68.267-30.566-68.267-68.267v-8.533C106.667,108.254,129.587,85.333,157.867,85.333z"/>
<g>
	<path style="fill:#B47923;" d="M157.867,179.2H192v68.267h-34.133V179.2z"/>
	<path style="fill:#B47923;" d="M294.4,179.2h34.133v68.267H294.4V179.2z"/>
</g>
<path style="fill:#DC4D41;" d="M106.667,298.667h273.067V435.2H106.667V298.667z"/>
<path style="fill:#C7463B;" d="M106.667,298.667h273.067v51.2H106.667V298.667z"/>
<g>
	<path style="fill:#EA9D2D;" d="M106.667,324.267H21.333V307.2c0-18.85,15.283-34.133,34.133-34.133h51.2V324.267z"/>
	<path style="fill:#EA9D2D;" d="M132.267,460.8h17.067v17.067h-17.067V460.8z"/>
	<path style="fill:#EA9D2D;" d="M166.4,460.8h17.067v17.067H166.4V460.8z"/>
	<path style="fill:#EA9D2D;" d="M200.533,460.8H217.6v17.067h-17.067V460.8z"/>
	<path style="fill:#EA9D2D;" d="M234.667,460.8h17.067v17.067h-17.067V460.8z"/>
	<path style="fill:#EA9D2D;" d="M268.8,460.8h17.067v17.067H268.8V460.8z"/>
	<path style="fill:#EA9D2D;" d="M302.933,460.8H320v17.067h-17.067V460.8z"/>
	<path style="fill:#EA9D2D;" d="M337.067,460.8h17.067v17.067h-17.067V460.8z"/>
</g>
<path style="fill:#277BAA;" d="M473.6,307.2h-17.067v-17.067H473.6c4.625,0,8.533-2.79,8.533-6.093v-21.948
	c0-3.302-3.908-6.093-8.533-6.093h-17.067v-17.067H473.6c13.449-0.623,24.875,9.719,25.6,23.159v21.948
	C498.475,297.481,487.049,307.823,473.6,307.2z"/>
<path style="fill:#FBB540;" d="M379.733,460.8H448c9.429,0,17.067-7.637,17.067-17.067V273.067h-85.333V460.8z"/>
<path style="fill:#EA9D2D;" d="M379.733,264.533h85.333v59.733h-85.333V264.533z"/>
<path style="fill:#428DC5;" d="M465.067,273.067h-85.333V256c0-23.561,19.106-42.667,42.667-42.667s42.667,19.106,42.667,42.667
	V273.067z"/>
<g>
	<path style="fill:#D68F29;" d="M21.333,324.267h85.333v25.6H21.333V324.267z"/>
	<path style="fill:#D68F29;" d="M379.733,324.267h85.333v25.6h-85.333V324.267z"/>
</g>
<path style="fill:#277BAA;" d="M379.733,256h85.333v17.067h-85.333V256z"/>
<path style="fill:#D68F29;" d="M106.667,435.2h273.067v17.067H106.667V435.2z"/>
<path d="M200.533,93.867h-51.2V0h51.2V93.867z M166.4,76.8h17.067V17.067H166.4V76.8z"/>
<g>
	<path id="SVGCleanerId_0_1_" d="M200.533,256h-51.2v-85.333h51.2V256z M166.4,238.933h17.067v-51.2H166.4V238.933z"/>
</g>
<path d="M174.933,401.067c-14.114,0-25.6-11.486-25.6-25.6v-34.133h51.2v34.133C200.533,389.581,189.047,401.067,174.933,401.067z
	 M166.4,358.4v17.067c0,4.71,3.831,8.533,8.533,8.533c4.702,0,8.533-3.823,8.533-8.533V358.4H166.4z"/>
<g>
	<path id="SVGCleanerId_1_1_" d="M337.067,256h-51.2v-85.333h51.2V256z M302.933,238.933H320v-51.2h-17.067V238.933z"/>
</g>
<path d="M337.067,93.867h-51.2V0h51.2V93.867z M302.933,76.8H320V17.067h-17.067V76.8z"/>
<path d="M405.333,93.867H81.067c-14.114,0-25.6-11.486-25.6-25.6V25.6c0-14.114,11.486-25.6,25.6-25.6h324.267
	c14.114,0,25.6,11.486,25.6,25.6v42.667C430.933,82.381,419.447,93.867,405.333,93.867z M81.067,17.067
	c-4.702,0-8.533,3.831-8.533,8.533v42.667c0,4.702,3.831,8.533,8.533,8.533h324.267c4.71,0,8.533-3.831,8.533-8.533V25.6
	c0-4.702-3.823-8.533-8.533-8.533H81.067z"/>
<path d="M345.6,512H140.8c-23.526,0-42.667-19.14-42.667-42.667v-332.8c0-32.939,26.795-59.733,59.733-59.733h170.667
	c32.93,0,59.733,26.795,59.733,59.733v332.8C388.267,492.86,369.126,512,345.6,512z M157.867,93.867
	c-23.526,0-42.667,19.14-42.667,42.667v332.8c0,14.114,11.486,25.6,25.6,25.6h204.8c14.114,0,25.6-11.486,25.6-25.6v-332.8
	c0-23.526-19.14-42.667-42.667-42.667H157.867z"/>
<path d="M115.2,469.333H38.4c-14.114,0-25.6-11.486-25.6-25.6V307.2c0-23.526,19.14-42.667,42.667-42.667H115.2V469.333z
	 M55.467,281.6c-14.114,0-25.6,11.486-25.6,25.6v136.533c0,4.71,3.831,8.533,8.533,8.533h59.733V281.6H55.467z"/>
<path d="M311.467,221.867H174.933c-42.342,0-76.8-34.458-76.8-76.8v-8.533c0-32.939,26.795-59.733,59.733-59.733h170.667
	c32.93,0,59.733,26.795,59.733,59.733v8.533C388.267,187.409,353.818,221.867,311.467,221.867z M157.867,93.867
	c-23.526,0-42.667,19.14-42.667,42.667v8.533c0,32.939,26.795,59.733,59.733,59.733h136.533c32.93,0,59.733-26.795,59.733-59.733
	v-8.533c0-23.526-19.14-42.667-42.667-42.667H157.867z"/>
<path d="M388.267,443.733H98.133v-153.6h290.133V443.733z M115.2,426.667h256V307.2h-256V426.667z"/>
<path d="M388.267,358.4H98.133v-68.267h290.133V358.4z M115.2,341.333h256V307.2h-256V341.333z"/>
<path d="M115.2,332.8H12.8v-25.6c0-23.526,19.14-42.667,42.667-42.667H115.2V332.8z M29.867,315.733h68.267V281.6H55.467
	c-14.114,0-25.6,11.486-25.6,25.6V315.733z"/>
<path d="M448,469.333h-76.8v-204.8h102.4v179.2C473.6,457.847,462.114,469.333,448,469.333z M388.267,452.267H448
	c4.71,0,8.533-3.823,8.533-8.533V281.6h-68.267V452.267z"/>
<rect x="132.267" y="460.8" width="17.067" height="17.067"/>
<rect x="166.4" y="460.8" width="17.067" height="17.067"/>
<rect x="200.533" y="460.8" width="17.067" height="17.067"/>
<rect x="234.667" y="460.8" width="17.067" height="17.067"/>
<rect x="268.8" y="460.8" width="17.067" height="17.067"/>
<rect x="302.933" y="460.8" width="17.067" height="17.067"/>
<rect x="337.067" y="460.8" width="17.067" height="17.067"/>
<path d="M473.6,332.8H371.2v-68.267h102.4V332.8z M388.267,315.733h68.267V281.6h-68.267V315.733z"/>
<path d="M473.6,281.6H371.2V256c0-28.237,22.963-51.2,51.2-51.2s51.2,22.963,51.2,51.2V281.6z M388.267,264.533h68.267V256
	c0-18.825-15.309-34.133-34.133-34.133S388.267,237.175,388.267,256V264.533z"/>
<path d="M474.726,307.243c-0.572,0-1.152-0.026-1.724-0.068l-7.936,0.026v-17.067h8.533c4.745,0.393,8.226-2.756,8.567-6.801
	l-0.034-21.239c-0.307-3.345-3.9-6.391-7.927-6.11L465.067,256v-17.067h8.533c12.698-0.862,24.465,9.131,25.566,22.451l0.034,22.656
	C498.116,297.446,487.322,307.243,474.726,307.243z"/>
<g>
</g>
<g>
</g>
<g>
</g>
<g>
</g>
<g>
</g>
<g>
</g>
<g>
</g>
<g>
</g>
<g>
</g>
<g>
</g>
<g>
</g>
<g>
</g>
<g>
</g>
<g>
</g>
<g>
</g>
</svg>
